<svg xmlns="http://www.w3.org/2000/svg" width="71" height="87"><g fill="#363636"><path d="M53.35 1.49c0-.74-.58-1.49-1.31-1.49H9.05c-.73 0-1.38.75-1.38 1.49v3.52h45.68V1.5zM54.2 81.8h-9.6V71.44h-6.95v2.5H18.77a3.49 3.49 0 0 0-3.18-2.15H3.56A3.59 3.59 0 0 0 0 75.32v3.02a3.55 3.55 0 0 0 3.56 3.48h12.03c1.52 0 2.8-.9 3.27-2.33h18.79v2.33h-9.52c-.53 0-1.01.44-1.01.97v3.17c0 .54.48 1.05 1.01 1.05H54.2c.53 0 .93-.51.93-1.05v-3.17c0-.53-.4-.97-.93-.97zM60.67 12.39a7.04 7.04 0 0 0-6.78-5.05H7.15A7.1 7.1 0 0 0 0 14.36v46.9a7.18 7.18 0 0 0 7.15 7.12h46.74c3.9 0 7.13-3.2 7.13-7.12V50.92a23.3 23.3 0 0 0-.35-38.52zM12.24 62.15a5.91 5.91 0 1 1 .02-11.82 5.91 5.91 0 0 1-.02 11.82zm5.96-32.6c0 .78-.64 1.42-1.42 1.42H7.84c-.78 0-1.42-.64-1.42-1.42V15.39c0-.79.64-1.43 1.42-1.43h8.94c.78 0 1.42.64 1.42 1.43v14.16zm29.56 22.3c-11.07 0-20.05-9-20.05-20.12s8.98-20.12 20.05-20.12c11.08 0 20.06 9.01 20.06 20.12s-8.98 20.13-20.06 20.13z"/><ellipse cx="47.76" cy="31.73" rx="12.19" ry="12.23"/><circle cx="31.56" cy="31.74" r="1.44"/><circle cx="63.96" cy="31.74" r="1.44"/><circle cx="39.11" cy="17.99" r="1.44"/><ellipse cx="56.41" cy="45.48" rx="1.43" ry="1.44"/><circle cx="55.7" cy="17.57" r="1.44"/><circle cx="39.83" cy="45.91" r="1.44"/></g></svg>