<svg height="164" width="136" xmlns="http://www.w3.org/2000/svg"><g fill="#fff"><path d="M93.13 38.77c8.12 0 14.95-5.54 16.9-13.05l5.47.81a2.16 2.16 0 0 0 .63-4.27l-5.54-.82v-.14-.54s-.46-6.52-1.08-9.24c-.62-2.72-2.54-3.3-2.54-3.3C97.2 6.03 87.2 5.8 84.6 5.8s-3.16 1.33-3.16 1.33l-3.15 5-.23.36-.02.05a17.46 17.46 0 0 0 15.1 26.24zM131.53 78.08L104.8 75.9l-9.24-21.12s-.46-2.77-6.01-8.47c-5.55-5.7-16.8-3.4-16.8-3.4S48.85 47.4 41 49.26c-7.86 1.85-8.17 9.86-8.17 9.86l-.63 4.52-15.18-2.94a2.99 2.99 0 0 0-3.52 2.37L6.1 101.3a3 3 0 0 0 2.38 3.52l51.2 9.92.34.04c-.73.1-1.3-.04-1.3-.04l-9.4-1.85-3.07 17.1-23.56 20.37a7.41 7.41 0 0 0 4.63 13.23 7.4 7.4 0 0 0 5.22-2.15s27.73-22.05 29.58-23.59c1.85-1.54 2.77-3.85 2.77-3.85s4.54-13.95 5.78-16.87c.85-2 4.93-1.08 4.93-1.08l22.89 8.63 7.61 29.06a7.43 7.43 0 0 0 14.59-2.7c-.84-4.97-4.6-27.05-5.56-31.83-1.08-5.4-4.62-6.94-4.62-6.94s-21.27-11.55-22.66-12.33c-1.38-.77-1.07-2.77-1.07-2.77l3.93-14.33 2.77 5.85s1.62 3.28 4.08 3.4l33.36.82a7.43 7.43 0 0 0 .63-14.83zM60.1 62.8l-1.79 5.88 9.9 1.92L48 66.69l.55-2.5zm-2.25 45.47l-45.3-8.78 6.27-32.35 12.54 2.43-1.62 11.56-.64 4.41v.08l-.03.13a7.43 7.43 0 1 0 14.73.01l2.91-13.22 17.42 3.37zM25.05 17h38.03c1.1 0 2-.89 2-1.98s-.9-2-2-2H25.05a2 2 0 0 0 0 3.98zM38.08 23.02a2 2 0 0 0 0 3.98h22.96a2 2 0 0 0 2-1.99 2 2 0 0 0-2-1.99z"/></g><path d="M87.1 32.73c8.12 0 14.94-5.54 16.9-13.05l5.46.82.32.02a2.16 2.16 0 0 0 .32-4.29l-5.54-.82v-.14l-.01-.54s-.45-6.52-1.08-9.24c-.62-2.72-2.53-3.3-2.53-3.3C91.17-.02 81.17-.25 78.56-.25S75.41 1.1 75.41 1.1l-3.15 5-.01-.01-.22.37-.03.04a17.47 17.47 0 0 0 15.1 26.24zM125.5 72.04l-26.74-2.17-9.25-21.11s-.46-2.77-6-8.48c-5.56-5.7-16.8-3.39-16.8-3.39s-23.9 4.47-31.75 6.32c-7.86 1.85-8.17 9.86-8.17 9.86l-3.08 22.04-.64 4.4-.01.09-.02.12a7.43 7.43 0 1 0 14.74.01l4.73-21.57 11.56-1.39-1.8 5.88 9.9 1.92a3.01 3.01 0 0 1 2.38 3.52l-7.41 38.24a3.01 3.01 0 0 1-2.95 2.43l-.22-.02c-.73.1-1.29-.04-1.29-.04l-9.4-1.85-3.08 17.11-23.56 20.36a7.41 7.41 0 0 0 4.64 13.23 7.4 7.4 0 0 0 5.22-2.14s27.72-22.05 29.57-23.6c1.85-1.53 2.77-3.85 2.77-3.85s4.55-13.94 5.78-16.87c.85-2 4.94-1.08 4.94-1.08l22.88 8.63 7.62 29.06a7.43 7.43 0 0 0 14.59-2.7c-.85-4.97-4.61-27.05-5.57-31.83-1.08-5.4-4.62-6.93-4.62-6.93S83.19 94.68 81.81 93.9c-1.39-.77-1.08-2.77-1.08-2.77l3.93-14.34 2.77 5.86s1.62 3.27 4.09 3.4l33.35.81a7.43 7.43 0 0 0 .63-14.83z" fill="#3a3a3a"/><path d="M53.97 108.74l.22.02c1.41 0 2.67-1 2.95-2.43l7.41-38.24a3.01 3.01 0 0 0-2.37-3.52l-20.22-3.92-1.28 5.86 17.41 3.38-6.27 32.35-45.3-8.78 6.27-32.35 12.54 2.43.83-5.95-15.18-2.94a2.99 2.99 0 0 0-3.51 2.37L.05 95.27a3 3 0 0 0 2.38 3.51l51.2 9.93c.11.02.22.02.34.03z" fill="#f0c42e"/><path d="M59.04 8.98a2 2 0 0 1-2 2H19.02a2 2 0 0 1 0-3.98h38.02a2 2 0 0 1 2 1.98zM57 18.98a2 2 0 0 1-2 1.99H32.04a2 2 0 0 1-2-1.99 2 2 0 0 1 2-1.99H55a2 2 0 0 1 2 1.99z" fill="#f0c52e"/></svg>